<svg id="visual" viewBox="0 0 960 540" width="960" height="540" xmlns="http://www.w3.org/2000/svg" xmlns:xlink="http://www.w3.org/1999/xlink" version="1.1"><rect x="0" y="0" width="960" height="540" fill="#001220"></rect><defs><linearGradient id="grad1_0" x1="43.8%" y1="0%" x2="100%" y2="100%"><stop offset="14.444444444444446%" stop-color="#001220" stop-opacity="1"></stop><stop offset="85.55555555555554%" stop-color="#001220" stop-opacity="1"></stop></linearGradient></defs><defs><linearGradient id="grad2_0" x1="0%" y1="0%" x2="56.3%" y2="100%"><stop offset="14.444444444444446%" stop-color="#001220" stop-opacity="1"></stop><stop offset="85.55555555555554%" stop-color="#001220" stop-opacity="1"></stop></linearGradient></defs><g transform="translate(960, 0)"><path d="M0 351C-34.5 341.3 -69 331.7 -104.8 322.4C-140.5 313.2 -177.4 304.3 -206.3 284C-235.2 263.6 -256.1 231.8 -276.7 201C-297.3 170.3 -317.7 140.6 -330 107.2C-342.4 73.9 -346.7 37 -351 0L0 0Z" fill="#3cf4fa"></path></g><g transform="translate(0, 540)"><path d="M0 -351C35.9 -342.9 71.8 -334.7 104.8 -322.4C137.8 -310.1 167.9 -293.6 199.8 -275.1C231.8 -256.5 265.6 -236 284 -206.3C302.3 -176.6 305.2 -137.9 313.8 -102C322.4 -66.1 336.7 -33 351 0L0 0Z" fill="#3cf4fa"></path></g></svg>